# xmcd
#
# Track frame offsets:
#	150
#	21287
#	35270
#	53692
#	65550
#	84370
#	98622
#	120715
#	134950
#	149292
#	167692
#	187095
#	207280
#	232788
#	255906
#
# Disc length: 3775 seconds
#
# Revision: 1
# Processed by: cddbd v1.5.2PL0 Copyright (c) Steve Scherf et al.
# Submitted via: audiograbber 1.83.01
#
DISCID=ca0ebd0f
DTITLE=Neil Young - Comes a Time
DYEAR=1963
DGENRE=Country
TTITLE0=GOIN' BACK
TTITLE1=COMES A TIME
TTITLE2=LOOK OUT FOR MY LOVE
TTITLE3=LOTTA LOVE
TTITLE4=PEACE OF MY MIND
TTITLE5=HUMAN HIGHWAY
TTITLE6=ALREADY ONE
TTITLE7=FIELD OF OPPORTUNITY
TTITLE8=MOTORCYCLE MAMA
TTITLE9=FOUR STRONG WINDS
TTITLE10=HANGIN' ON A LIMB
TTITLE11=THE WAYS OF LOVE
TTITLE12=SOMEDAY
TTITLE13=WRECKING BALL
TTITLE14=NO MORE
EXTD=
EXTT0=
EXTT1=
EXTT2=
EXTT3=
EXTT4=
EXTT5=
EXTT6=
EXTT7=
EXTT8=
EXTT9=
EXTT10=
EXTT11=
EXTT12=
EXTT13=
EXTT14=
PLAYORDER=
